<?xml version="1.0" encoding="UTF-8" standalone="yes"?>
<!-- Created with sK1/UniConvertor (http://sk1project.org/) -->
<svg xmlns="http://www.w3.org/2000/svg" xmlns:xlink="http://www.w3.org/1999/xlink"
  width="75pt" height="132pt" viewBox="0 0 75 132"
  fill-rule="evenodd">
<g>
<g>
<path style="stroke:none; fill:#000000" d="M 5.1 1.39999C 0 4.2 0.0999999 3.39999 0 65.7C 0 108.8 0.3 124.6 1.2 126.5C 3.6 131.7 5.4 132 37.5 132C 69.6 132 71.4 131.7 73.8 126.5C 75.5 122.8 75.5 9.2 73.8 5.5C 71.4 0.300003 69.6 0 37.3 0C 14.5 0.100006 6.9 0.399994 5.1 1.39999zM 52.4 6.89999C 52.8 7.39999 52.7 8.49999 52.4 9.39999C 51.5 11.8 23.5 11.8 22.6 9.39999C 22.3 8.49999 22.2 7.39999 22.6 6.89999C 23.3 5.7 51.7 5.7 52.4 6.89999zM 68 59L 68 102L 37.5 102L 7 102L 7 59L 7 16L 37.5 16L 68 16L 68 59zM 42 112.5C 44 114.6 44.2 115.5 43.4 117.7C 42.9 119.2 41.3 121.1 39.9 121.9C 37.5 123.2 37 123.2 34.6 121.7C 30.9 119.2 30.2 115.5 33.1 112.4C 36 109.3 39 109.3 42 112.5z"/>
</g>
</g>
</svg>