<?xml version="1.0" standalone="no"?>
<!DOCTYPE svg PUBLIC "-//W3C//DTD SVG 20010904//EN"
 "http://www.w3.org/TR/2001/REC-SVG-20010904/DTD/svg10.dtd">
<svg version="1.0" xmlns="http://www.w3.org/2000/svg"
 width="192.000000pt" height="149.000000pt" viewBox="0 0 192.000000 149.000000"
 preserveAspectRatio="xMidYMid meet">
<metadata>
Created by potrace 1.13, written by Peter Selinger 2001-2015
</metadata>
<g transform="translate(0.000000,149.000000) scale(0.100000,-0.100000)"
fill="#000000" stroke="none">
<path d="M270 1325 l0 -155 50 0 50 0 0 105 0 105 605 0 605 0 0 -240 0 -240
50 0 50 0 0 290 0 290 -705 0 -705 0 0 -155z"/>
<path d="M0 560 l0 -550 375 0 375 0 0 550 0 550 -375 0 -375 0 0 -550z m650
40 l0 -410 -270 0 -270 0 0 410 0 410 270 0 270 0 0 -410z"/>
<path d="M1420 440 l0 -420 250 0 250 0 0 420 0 420 -250 0 -250 0 0 -420z
m418 3 l-3 -288 -170 0 -170 0 -3 288 -2 287 175 0 175 0 -2 -287z"/>
<path d="M800 620 l0 -50 280 0 280 0 0 50 0 50 -280 0 -280 0 0 -50z"/>
<path d="M800 490 l0 -30 190 0 c162 0 190 -2 190 -15 0 -13 -28 -15 -190 -15
l-190 0 0 -25 0 -25 280 0 280 0 0 70 0 70 -280 0 -280 0 0 -30z"/>
</g>
</svg>
